<svg xmlns="http://www.w3.org/2000/svg" viewBox="0 0 120 120" role="img" aria-label="粗體誌 BOLDFACE logo">
  <rect x="6" y="6" width="108" height="108" fill="#ffd400" stroke="#141414" stroke-width="6"/>
  <rect x="18" y="18" width="84" height="84" fill="#141414"/>
  <path d="M36 32h26c11 0 18 6 18 15 0 6-3 10-8 12 7 2 11 7 11 14 0 10-8 16-21 16H36V32zm14 13v13h9c5 0 8-2 8-6 0-5-3-7-9-7h-8zm0 25v14h11c6 0 9-3 9-7 0-5-4-7-10-7H50z" fill="#ffd400"/>
  <rect x="84" y="84" width="18" height="18" fill="#ff3b1f" stroke="#141414" stroke-width="4"/>
</svg>
